<svg width="8" height="14" viewBox="0 0 8 14" fill="none" xmlns="http://www.w3.org/2000/svg">
<path d="M2.59998 7.71006C2.50625 7.6171 2.43186 7.5065 2.38109 7.38464C2.33032 7.26278 2.30418 7.13207 2.30418 7.00006C2.30418 6.86805 2.33032 6.73734 2.38109 6.61548C2.43186 6.49362 2.50625 6.38302 2.59998 6.29006L7.18998 1.71006C7.28371 1.6171 7.35811 1.5065 7.40887 1.38464C7.45964 1.26278 7.48578 1.13207 7.48578 1.00006C7.48578 0.868048 7.45964 0.737343 7.40887 0.615483C7.35811 0.493624 7.28371 0.383023 7.18998 0.29006C7.00262 0.103809 6.74917 -0.000732422 6.48498 -0.000732422C6.2208 -0.000732422 5.96734 0.103809 5.77998 0.29006L1.18998 4.88006C0.62818 5.44256 0.312622 6.20506 0.312622 7.00006C0.312622 7.79506 0.62818 8.55756 1.18998 9.12006L5.77998 13.7101C5.96624 13.8948 6.21764 13.999 6.47998 14.0001C6.61159 14.0008 6.74205 13.9756 6.86389 13.9258C6.98573 13.8761 7.09654 13.8027 7.18998 13.7101C7.28371 13.6171 7.35811 13.5065 7.40887 13.3846C7.45964 13.2628 7.48578 13.1321 7.48578 13.0001C7.48578 12.868 7.45964 12.7373 7.40887 12.6155C7.35811 12.4936 7.28371 12.383 7.18998 12.2901L2.59998 7.71006Z" fill="#3E2723"/>
</svg>
